<svg width="400" height="300" viewBox="0 0 400 300" fill="none" xmlns="http://www.w3.org/2000/svg">
  <rect width="400" height="300" rx="12" fill="#F9FAFB"/>
  <rect x="20" y="20" width="360" height="260" rx="8" fill="white" stroke="#E5E7EB" stroke-width="2"/>
  <rect x="20" y="20" width="360" height="40" rx="8" fill="#4F46E5" stroke="#4F46E5" stroke-width="2"/>
  <rect x="40" y="35" width="160" height="10" rx="5" fill="white"/>
  <circle cx="350" cy="40" r="10" fill="white"/>
  <rect x="40" y="80" width="140" height="10" rx="5" fill="#F3F4F6"/>
  <rect x="40" y="100" width="260" height="10" rx="5" fill="#F3F4F6"/>
  <rect x="40" y="120" width="200" height="10" rx="5" fill="#F3F4F6"/>
  
  <rect x="40" y="160" width="260" height="70" rx="8" fill="#F9FAFB" stroke="#E5E7EB"/>
  <rect x="60" y="180" width="220" height="10" rx="5" fill="#E5E7EB"/>
  <rect x="60" y="200" width="180" height="10" rx="5" fill="#E5E7EB"/>
  
  <rect x="40" y="250" width="200" height="16" rx="8" fill="#F9FAFB" stroke="#E5E7EB"/>
  <circle cx="350" cy="260" r="20" fill="#4F46E5" stroke="white" stroke-width="2"/>
  <path d="M343 260L348 265L358 255" stroke="white" stroke-width="2" stroke-linecap="round" stroke-linejoin="round"/>
</svg> 