<svg width="130" height="40" viewBox="0 0 130 40" fill="none" xmlns="http://www.w3.org/2000/svg">
  <path d="M22.5 8H17.5C13.9101 8 11 10.9101 11 14.5V14.5C11 18.0899 13.9101 21 17.5 21H22.5C26.0899 21 29 18.0899 29 14.5V14.5C29 10.9101 26.0899 8 22.5 8Z" fill="#4F46E5"/>
  <path d="M22.5 25H17.5C13.9101 25 11 27.9101 11 31.5V31.5C11 35.0899 13.9101 38 17.5 38H22.5C26.0899 38 29 35.0899 29 31.5V31.5C29 27.9101 26.0899 25 22.5 25Z" fill="#4F46E5" fill-opacity="0.6"/>
  <path d="M9.5 17H4.5C3.11929 17 2 18.1193 2 19.5V19.5C2 20.8807 3.11929 22 4.5 22H9.5C10.8807 22 12 20.8807 12 19.5V19.5C12 18.1193 10.8807 17 9.5 17Z" fill="#4F46E5" fill-opacity="0.4"/>
  <path d="M40.152 30V11.8H44.28V26.52H52.584V30H40.152ZM59.2945 30.24C57.5505 30.24 56.0865 29.72 54.9025 28.68C53.7345 27.64 53.1505 26.152 53.1505 24.216C53.1505 22.28 53.7345 20.792 54.9025 19.752C56.0865 18.712 57.5505 18.192 59.2945 18.192C61.0385 18.192 62.4945 18.712 63.6625 19.752C64.8465 20.792 65.4385 22.28 65.4385 24.216C65.4385 26.152 64.8465 27.64 63.6625 28.68C62.4945 29.72 61.0385 30.24 59.2945 30.24ZM59.2945 27.12C60.1185 27.12 60.7825 26.832 61.2865 26.256C61.7905 25.68 62.0425 25.032 62.0425 24.312V24.12C62.0425 23.4 61.7905 22.752 61.2865 22.176C60.7825 21.6 60.1185 21.312 59.2945 21.312C58.4705 21.312 57.8065 21.6 57.3025 22.176C56.7985 22.752 56.5465 23.4 56.5465 24.12V24.312C56.5465 25.032 56.7985 25.68 57.3025 26.256C57.8065 26.832 58.4705 27.12 59.2945 27.12ZM72.0353 30.24C70.7633 30.24 69.7393 29.848 68.9633 29.064C68.2033 28.264 67.8233 27.224 67.8233 25.944V21.624H66.4953V18.432H67.8233V15.384H71.2673V18.432H73.7233V21.624H71.2673V25.296C71.2673 25.68 71.3793 25.984 71.6033 26.208C71.8273 26.432 72.1353 26.544 72.5273 26.544C72.9513 26.544 73.3353 26.432 73.6793 26.208L74.9433 29.112C74.3033 29.864 73.3433 30.24 72.0353 30.24ZM84.8345 30V24.648C84.8345 23.976 84.6585 23.456 84.3065 23.088C83.9705 22.704 83.5145 22.512 82.9385 22.512C82.3625 22.512 81.8985 22.704 81.5465 23.088C81.2105 23.456 81.0425 23.976 81.0425 24.648V30H77.5985V18.432H81.0425V19.776C81.6985 18.72 82.8505 18.192 84.4985 18.192C85.6985 18.192 86.7145 18.632 87.5465 19.512C88.3945 20.376 88.8185 21.56 88.8185 23.064V30H84.8345ZM96.3633 30.24C94.6193 30.24 93.1553 29.72 91.9713 28.68C90.8033 27.64 90.2193 26.152 90.2193 24.216C90.2193 22.28 90.8033 20.792 91.9713 19.752C93.1553 18.712 94.6193 18.192 96.3633 18.192C98.1073 18.192 99.5633 18.712 100.731 19.752C101.915 20.792 102.507 22.28 102.507 24.216C102.507 26.152 101.915 27.64 100.731 28.68C99.5633 29.72 98.1073 30.24 96.3633 30.24ZM96.3633 27.12C97.1873 27.12 97.8513 26.832 98.3553 26.256C98.8593 25.68 99.1113 25.032 99.1113 24.312V24.12C99.1113 23.4 98.8593 22.752 98.3553 22.176C97.8513 21.6 97.1873 21.312 96.3633 21.312C95.5393 21.312 94.8753 21.6 94.3713 22.176C93.8673 22.752 93.6153 23.4 93.6153 24.12V24.312C93.6153 25.032 93.8673 25.68 94.3713 26.256C94.8753 26.832 95.5393 27.12 96.3633 27.12ZM111.056 30.24C108.792 30.24 106.984 29.72 105.632 28.68C104.296 27.624 103.512 26.136 103.28 24.216L106.976 23.712C107.104 24.72 107.472 25.48 108.08 25.992C108.688 26.488 109.624 26.736 110.888 26.736C112.28 26.736 112.976 26.328 112.976 25.512C112.976 25.112 112.792 24.824 112.424 24.648C112.072 24.456 111.424 24.256 110.48 24.048C109.632 23.872 108.792 23.672 107.96 23.448C107.128 23.224 106.408 22.856 105.8 22.344C105.192 21.832 104.888 21.104 104.888 20.16C104.888 18.896 105.4 17.888 106.424 17.136C107.464 16.368 108.904 15.984 110.744 15.984C112.52 15.984 113.92 16.368 114.944 17.136C115.984 17.888 116.696 18.928 117.08 20.256L113.384 20.736C113.304 20.112 113.016 19.624 112.52 19.272C112.04 18.92 111.36 18.744 110.48 18.744C109.6 18.744 108.952 18.848 108.536 19.056C108.136 19.248 107.936 19.536 107.936 19.92C107.936 20.32 108.12 20.608 108.488 20.784C108.872 20.96 109.528 21.152 110.456 21.36C111.32 21.552 112.16 21.76 112.976 21.984C113.808 22.208 114.52 22.584 115.112 23.112C115.704 23.624 116 24.344 116 25.272C116 26.6 115.464 27.648 114.392 28.416C113.336 29.168 112.184 29.648 110.936 29.856C110.968 29.856 111 29.856 111.032 29.856L111.056 30.24ZM124.407 30.24C122.663 30.24 121.199 29.72 120.015 28.68C118.847 27.64 118.263 26.152 118.263 24.216C118.263 22.28 118.847 20.792 120.015 19.752C121.199 18.712 122.663 18.192 124.407 18.192C126.151 18.192 127.607 18.712 128.775 19.752C129.959 20.792 130.551 22.28 130.551 24.216C130.551 26.152 129.959 27.64 128.775 28.68C127.607 29.72 126.151 30.24 124.407 30.24ZM124.407 27.12C125.231 27.12 125.895 26.832 126.399 26.256C126.903 25.68 127.155 25.032 127.155 24.312V24.12C127.155 23.4 126.903 22.752 126.399 22.176C125.895 21.6 125.231 21.312 124.407 21.312C123.583 21.312 122.919 21.6 122.415 22.176C121.911 22.752 121.659 23.4 121.659 24.12V24.312C121.659 25.032 121.911 25.68 122.415 26.256C122.919 26.832 123.583 27.12 124.407 27.12Z" fill="#111827"/>
</svg> 