<svg width="500" height="250" viewBox="0 0 500 250" fill="none" xmlns="http://www.w3.org/2000/svg">
  <rect width="500" height="250" rx="12" fill="#F9FAFB"/>

  <!-- Chat Window -->
  <rect x="100" y="30" width="300" height="200" rx="8" fill="white" stroke="#E5E7EB" stroke-width="2"/>
  
  <!-- Header -->
  <rect x="100" y="30" width="300" height="40" rx="8" fill="#4F46E5"/>
  <rect x="120" y="45" width="100" height="10" rx="5" fill="white" fill-opacity="0.9"/>
  <circle cx="380" cy="50" r="10" fill="white" fill-opacity="0.5"/>
  
  <!-- Chat Messages -->
  <!-- User Message -->
  <rect x="260" y="90" width="120" height="40" rx="8" fill="#E5E7EB"/>
  <rect x="275" y="102" width="90" height="6" rx="3" fill="#6B7280"/>
  <rect x="275" y="114" width="60" height="6" rx="3" fill="#6B7280"/>
  
  <!-- Bot Message -->
  <rect x="120" y="140" width="190" height="60" rx="8" fill="#EEF2FF"/>
  <rect x="135" y="152" width="160" height="6" rx="3" fill="#4F46E5" fill-opacity="0.7"/>
  <rect x="135" y="164" width="140" height="6" rx="3" fill="#4F46E5" fill-opacity="0.7"/>
  <rect x="135" y="176" width="120" height="6" rx="3" fill="#4F46E5" fill-opacity="0.7"/>
  
  <!-- Bot Avatar -->
  <circle cx="120" cy="140" r="12" fill="#4F46E5"/>
  <circle cx="115" cy="138" r="2" fill="white"/>
  <circle cx="125" cy="138" r="2" fill="white"/>
  <path d="M115 145C115 145 117 148 120 148C123 148 125 145 125 145" stroke="white" stroke-width="1.5" stroke-linecap="round"/>
  
  <!-- User Avatar -->
  <circle cx="380" cy="90" r="12" fill="#9CA3AF"/>
  <path d="M375 88V88C375 85.7909 376.791 84 379 84V84C381.209 84 383 85.7909 383 88V88V90C383 92.2091 381.209 94 379 94V94C376.791 94 375 92.2091 375 90V88Z" fill="#E5E7EB"/>
  <circle cx="379" cy="84" r="3" fill="#E5E7EB"/>
  
  <!-- Input Bar -->
  <rect x="120" y="210" width="260" height="10" rx="5" fill="#F3F4F6"/>
  <circle cx="365" cy="210" r="10" fill="#4F46E5"/>
  <path d="M362 210L365 213L368 210" stroke="white" stroke-width="1.5" stroke-linecap="round" stroke-linejoin="round"/>
</svg> 